<?xml version="1.0" encoding="UTF-8" standalone="no"?>
<!DOCTYPE svg PUBLIC "-//W3C//DTD SVG 1.1//EN" "http://www.w3.org/Graphics/SVG/1.1/DTD/svg11.dtd">
<svg width="100%" height="100%" viewBox="0 0 2929 681" version="1.1" xmlns="http://www.w3.org/2000/svg" xmlns:xlink="http://www.w3.org/1999/xlink" xml:space="preserve" xmlns:serif="http://www.serif.com/" style="fill-rule:evenodd;clip-rule:evenodd;stroke-linejoin:round;stroke-miterlimit:2;">
    <g transform="matrix(1,0,0,1,-156.00336,-155.3)">
        <path d="M786.55,242.74C748.43,231.69 711.88,226.9 677.01,226.9C636.53,226.9 598.3,233.37 562.52,244.05C392.5,294.82 280.63,440.74 280.63,440.74L197.56,555.52C197.56,555.52 210.77,560.94 234.42,567.51C239.12,568.83 244.25,570.15 249.78,571.52C246.6,574.52 179.68,636.94 158.91,734.19C155.13,751.9 155.09,759.24 158.48,759.24C173.7,759.24 257.97,611.29 382.13,589.63C384.08,589.68 386.03,589.71 388.02,589.76C392.03,589.86 396.1,589.89 400.22,589.89C404.34,589.89 408.71,589.85 413.02,589.82C453.03,589.3 496.96,584.92 543.34,574.7C547.79,573.73 552.28,573.05 556.79,571.26L557.15,571.1C557.07,571.38 556.98,571.67 556.87,571.95C500.76,736.7 310.24,836.22 349.16,836.22C351.49,836.22 354.65,835.86 358.71,835.14C430.45,822.36 639.87,745.8 739.16,499.32C739.2,499.23 834.53,450.88 889.03,370.64C938.88,297.25 1002.57,263.15 1037.81,247.13C1042.04,245.21 1044.77,200.09 999.55,173.84C976.93,160.7 955.54,155.31 935.45,155.31C872.19,155.31 821.82,208.83 786.55,242.75L786.55,242.74Z" style="fill:rgb(246,247,253);fill-rule:nonzero;"/>
        <g>
            <path d="M999.55,173.83C976.93,160.69 955.54,155.3 935.45,155.3C872.19,155.3 821.82,208.82 786.55,242.74C748.43,231.69 711.88,226.9 677.01,226.9C636.53,226.9 598.3,233.37 562.52,244.05C392.5,294.82 280.63,440.74 280.63,440.74L197.56,555.52C197.56,555.52 210.77,560.94 234.42,567.51C239.12,568.83 244.25,570.15 249.78,571.52C246.6,574.52 179.68,636.94 158.91,734.19C155.13,751.9 155.09,759.24 158.48,759.24C173.7,759.24 257.97,611.29 382.13,589.63C384.08,589.68 386.03,589.71 388.02,589.76C392.03,589.86 396.1,589.89 400.22,589.89C404.34,589.89 408.71,589.85 413.02,589.82C453.03,589.3 496.96,584.92 543.34,574.7C547.79,573.73 552.28,573.05 556.79,571.26L557.15,571.1C557.07,571.38 556.98,571.67 556.87,571.95C500.76,736.7 310.24,836.22 349.16,836.22C351.49,836.22 354.65,835.86 358.71,835.14C430.45,822.36 639.87,745.8 739.16,499.32C739.2,499.23 834.53,450.88 889.03,370.64C938.88,297.25 1002.57,263.15 1037.81,247.13C1042.04,245.21 1044.77,200.09 999.55,173.84L999.55,173.83Z" style="fill:rgb(246,247,253);fill-rule:nonzero;"/>
            <g opacity="0.29">
                <path d="M762.21,522.76C764.51,539.49 765.91,556.65 764.52,568.85C752.79,671.9 657.34,770.34 698.29,753.65C739.16,737 851.19,667.36 860.28,508.4C861.06,494.78 859.49,474.49 856.9,452.67C819.75,486.67 781.99,510 763.09,520.72C762.8,521.4 762.5,522.07 762.21,522.75L762.21,522.76Z" style="fill:rgb(246,247,253);fill-rule:nonzero;"/>
                <path d="M413.42,620.1L413.29,620.1C409.27,620.14 404.71,620.17 400.23,620.17C395.39,620.17 391.16,620.12 387.29,620.03C386.45,620.01 385.61,619.99 384.78,619.98C332.5,669.66 268.71,693.32 319.7,687.9C395.84,679.78 455.47,640.71 487.38,614.99C462.75,618.05 438.03,619.78 413.42,620.1Z" style="fill:rgb(246,247,253);fill-rule:nonzero;"/>
            </g>
        </g>
        <g transform="matrix(1,0,0,1,1073,488.23)">
            <text x="0px" y="0px" style="font-family:'Poppins-Bold', 'Poppins';font-weight:700;font-size:270.08px;fill:rgb(246,247,253);">P</text>
        </g>
        <g transform="matrix(1,0,0,1,1073,488.23)">
            <g transform="matrix(1,0,0,1,167.8,0)">
                <text x="0px" y="0px" style="font-family:'Poppins-Bold', 'Poppins';font-weight:700;font-size:270.08px;fill:rgb(246,247,253);">U</text>
            </g>
        </g>
        <g transform="matrix(1,0,0,1,1073,488.23)">
            <g transform="matrix(1,0,0,1,364.19,0)">
                <text x="0px" y="0px" style="font-family:'Poppins-Bold', 'Poppins';font-weight:700;font-size:270.08px;fill:rgb(246,247,253);">R</text>
            </g>
        </g>
        <g transform="matrix(1,0,0,1,1073,488.23)">
            <g transform="matrix(1,0,0,1,543.41,0)">
                <text x="0px" y="0px" style="font-family:'Poppins-Bold', 'Poppins';font-weight:700;font-size:270.08px;fill:rgb(246,247,253);">P</text>
            </g>
        </g>
        <g transform="matrix(1,0,0,1,1073,488.23)">
            <g transform="matrix(1,0,0,1,712.45,0)">
                <text x="0px" y="0px" style="font-family:'Poppins-Bold', 'Poppins';font-weight:700;font-size:270.08px;fill:rgb(246,247,253);">L</text>
            </g>
        </g>
        <g transform="matrix(1,0,0,1,1073,488.23)">
            <g transform="matrix(1,0,0,1,841.3,0)">
                <text x="0px" y="0px" style="font-family:'Poppins-Bold', 'Poppins';font-weight:700;font-size:270.08px;fill:rgb(246,247,253);">E</text>
            </g>
        </g>
        <g transform="matrix(1,0,0,1,1073,488.23)">
            <g transform="matrix(1,0,0,1,1058.17,0)">
                <text x="0px" y="0px" style="font-family:'Poppins-Bold', 'Poppins';font-weight:700;font-size:270.08px;fill:rgb(246,247,253);">T</text>
            </g>
        </g>
        <g transform="matrix(1,0,0,1,1073,488.23)">
            <g transform="matrix(1,0,0,1,1217.65,0)">
                <text x="0px" y="0px" style="font-family:'Poppins-Bold', 'Poppins';font-weight:700;font-size:270.08px;fill:rgb(246,247,253);">U</text>
            </g>
        </g>
        <g transform="matrix(1,0,0,1,1073,488.23)">
            <g transform="matrix(1,0,0,1,1414.04,0)">
                <text x="0px" y="0px" style="font-family:'Poppins-Bold', 'Poppins';font-weight:700;font-size:270.08px;fill:rgb(246,247,253);">R</text>
            </g>
        </g>
        <g transform="matrix(1,0,0,1,1073,488.23)">
            <g transform="matrix(1,0,0,1,1590.45,0)">
                <text x="0px" y="0px" style="font-family:'Poppins-Bold', 'Poppins';font-weight:700;font-size:270.08px;fill:rgb(246,247,253);">T</text>
            </g>
        </g>
        <g transform="matrix(1,0,0,1,1073,488.23)">
            <g transform="matrix(1,0,0,1,1749.5,0)">
                <text x="0px" y="0px" style="font-family:'Poppins-Bold', 'Poppins';font-weight:700;font-size:270.08px;fill:rgb(246,247,253);">L</text>
            </g>
        </g>
        <g transform="matrix(1,0,0,1,1073,488.23)">
            <g transform="matrix(1,0,0,1,1878.35,0)">
                <text x="0px" y="0px" style="font-family:'Poppins-Bold', 'Poppins';font-weight:700;font-size:270.08px;fill:rgb(246,247,253);">E</text>
            </g>
        </g>
        <g transform="matrix(1,0,0,1,1537,704.2)">
            <g opacity="0.29">
                <text x="0px" y="0px" style="font-family:'Poppins-SemiBold', 'Poppins';font-weight:600;font-size:218.88px;fill:rgb(246,247,253);">C</text>
                <g transform="matrix(1,0,0,1,184.47,0)">
                    <text x="0px" y="0px" style="font-family:'Poppins-SemiBold', 'Poppins';font-weight:600;font-size:218.88px;fill:rgb(246,247,253);">R</text>
                </g>
                <g transform="matrix(1,0,0,1,341.81,0)">
                    <text x="0px" y="0px" style="font-family:'Poppins-SemiBold', 'Poppins';font-weight:600;font-size:218.88px;fill:rgb(246,247,253);">E</text>
                </g>
                <g transform="matrix(1,0,0,1,474.8,0)">
                    <text x="0px" y="0px" style="font-family:'Poppins-SemiBold', 'Poppins';font-weight:600;font-size:218.88px;fill:rgb(246,247,253);">A</text>
                </g>
                <g transform="matrix(1,0,0,1,628.92,0)">
                    <text x="0px" y="0px" style="font-family:'Poppins-SemiBold', 'Poppins';font-weight:600;font-size:218.88px;fill:rgb(246,247,253);">T</text>
                </g>
                <g transform="matrix(1,0,0,1,769.46,0)">
                    <text x="0px" y="0px" style="font-family:'Poppins-SemiBold', 'Poppins';font-weight:600;font-size:218.88px;fill:rgb(246,247,253);">I</text>
                </g>
                <g transform="matrix(1,0,0,1,846.62,0)">
                    <text x="0px" y="0px" style="font-family:'Poppins-SemiBold', 'Poppins';font-weight:600;font-size:218.88px;fill:rgb(246,247,253);">V</text>
                </g>
                <g transform="matrix(1,0,0,1,1018.44,0)">
                    <text x="0px" y="0px" style="font-family:'Poppins-SemiBold', 'Poppins';font-weight:600;font-size:218.88px;fill:rgb(246,247,253);">E</text>
                </g>
            </g>
        </g>
    </g>
</svg>
