<svg viewBox="0 0 1035 967.62" xmlns="http://www.w3.org/2000/svg"><path d="m640.3 323.52c-25.18-7.3-49.32-10.47-72.36-10.47-26.74 0-51.99 4.27-75.63 11.33-112.31 33.53-186.2 129.92-186.2 129.92l-54.87 75.82s8.73 3.58 24.35 7.92c3.11.87 6.49 1.74 10.15 2.65-2.1 1.98-46.3 43.22-60.02 107.45-2.5 11.7-2.52 16.55-.28 16.55 10.05 0 65.72-97.73 147.73-112.04 1.29.03 2.58.05 3.89.08 2.65.07 5.34.09 8.06.09s5.61-.02 8.46-.05c26.43-.34 55.45-3.24 86.09-9.99 2.94-.64 5.9-1.09 8.88-2.27l.24-.11c-.05.19-.11.37-.18.56-37.06 108.82-162.91 174.57-137.2 174.57 1.54 0 3.63-.24 6.31-.71 47.39-8.44 185.72-59.02 251.31-221.83.02-.06 63-32 99-85 32.93-48.48 75-71 98.27-81.59 2.79-1.27 4.6-31.07-25.27-48.41-14.94-8.68-29.07-12.24-42.34-12.24-41.79 0-75.06 35.36-98.36 57.76z" fill="#3c56f5"/><path d="m781 278c-14.94-8.68-29.07-12.24-42.34-12.24-41.79 0-75.06 35.36-98.36 57.76-25.18-7.3-49.32-10.47-72.36-10.47-26.74 0-51.99 4.27-75.63 11.33-112.31 33.53-186.2 129.92-186.2 129.92l-54.87 75.82s8.73 3.58 24.35 7.92c3.11.87 6.49 1.74 10.15 2.65-2.1 1.98-46.3 43.22-60.02 107.45-2.5 11.7-2.52 16.55-.28 16.55 10.05 0 65.72-97.73 147.73-112.04 1.29.03 2.58.05 3.89.08 2.65.07 5.34.09 8.06.09s5.61-.02 8.46-.05c26.43-.34 55.45-3.24 86.09-9.99 2.94-.64 5.9-1.09 8.88-2.27l.24-.11c-.05.19-.11.37-.18.56-37.06 108.82-162.91 174.57-137.2 174.57 1.54 0 3.63-.24 6.31-.71 47.39-8.44 185.72-59.02 251.31-221.83.02-.06 63-32 99-85 32.93-48.48 75-71 98.27-81.59 2.79-1.27 4.6-31.07-25.27-48.41z" fill="none"/><g fill="#3c56f5" opacity=".29"><path d="m624.22 508.49c1.52 11.05 2.44 22.39 1.53 30.44-7.75 68.07-70.8 133.09-43.75 122.07 27-11 101-57 107-162 .51-9-.52-22.4-2.23-36.81-24.54 22.46-49.49 37.87-61.97 44.95-.19.45-.39.89-.58 1.34z"/><path d="m393.78 572.78h-.04c-2.66.02-5.67.05-8.63.05-3.2 0-5.99-.03-8.55-.09-.56-.01-1.11-.02-1.66-.04-34.54 32.82-76.67 48.45-42.99 44.86 50.3-5.37 89.69-31.17 110.76-48.16-16.27 2.02-32.6 3.16-48.86 3.37h-.04z"/></g></svg>