<svg viewBox="0 0 3240 991" xmlns="http://www.w3.org/2000/svg"><path d="m786.55 242.74c-38.12-11.05-74.67-15.84-109.54-15.84-40.48 0-78.71 6.47-114.49 17.15-170.02 50.77-281.89 196.69-281.89 196.69l-83.07 114.78s13.21 5.42 36.86 11.99c4.7 1.32 9.83 2.64 15.36 4.01-3.18 3-70.1 65.42-90.87 162.67-3.78 17.71-3.82 25.05-.43 25.05 15.22 0 99.49-147.95 223.65-169.61 1.95.05 3.9.08 5.89.13 4.01.1 8.08.13 12.2.13s8.49-.04 12.8-.07c40.01-.52 83.94-4.9 130.32-15.12 4.45-.97 8.94-1.65 13.45-3.44l.36-.16c-.08.28-.17.57-.28.85-56.11 164.75-246.63 264.27-207.71 264.27 2.33 0 5.49-.36 9.55-1.08 71.74-12.78 281.16-89.34 380.45-335.82.04-.09 95.37-48.44 149.87-128.68 49.85-73.39 113.54-107.49 148.78-123.51 4.23-1.92 6.96-47.04-38.26-73.29-22.62-13.14-44.01-18.53-64.1-18.53-63.26 0-113.63 53.52-148.9 87.44z" fill="#3c56f5"/><path d="m999.55 173.83c-22.62-13.14-44.01-18.53-64.1-18.53-63.26 0-113.63 53.52-148.9 87.44-38.12-11.05-74.67-15.84-109.54-15.84-40.48 0-78.71 6.47-114.49 17.15-170.02 50.77-281.89 196.69-281.89 196.69l-83.07 114.78s13.21 5.42 36.86 11.99c4.7 1.32 9.83 2.64 15.36 4.01-3.18 3-70.1 65.42-90.87 162.67-3.78 17.71-3.82 25.05-.43 25.05 15.22 0 99.49-147.95 223.65-169.61 1.95.05 3.9.08 5.89.13 4.01.1 8.08.13 12.2.13s8.49-.04 12.8-.07c40.01-.52 83.94-4.9 130.32-15.12 4.45-.97 8.94-1.65 13.45-3.44l.36-.16c-.08.28-.17.57-.28.85-56.11 164.75-246.63 264.27-207.71 264.27 2.33 0 5.49-.36 9.55-1.08 71.74-12.78 281.16-89.34 380.45-335.82.04-.09 95.37-48.44 149.87-128.68 49.85-73.39 113.54-107.49 148.78-123.51 4.23-1.92 6.96-47.04-38.26-73.29z" fill="none"/><g fill="#3c56f5"><g opacity=".29"><path d="m762.21 522.76c2.3 16.73 3.7 33.89 2.31 46.09-11.73 103.05-107.18 201.49-66.23 184.8 40.87-16.65 152.9-86.29 161.99-245.25.78-13.62-.79-33.91-3.38-55.73-37.15 34-74.91 57.33-93.81 68.05-.29.68-.59 1.35-.88 2.03z"/><path d="m413.35 620.1h-.06c-4.02.04-8.58.07-13.06.07-4.84 0-9.07-.05-12.94-.14-.84-.02-1.68-.04-2.51-.05-52.28 49.68-116.07 73.34-65.08 67.92 76.14-8.12 135.77-47.19 167.68-72.91-24.63 3.06-49.35 4.79-73.96 5.11h-.06z"/></g><text font-family="Poppins-Bold, Poppins" font-size="270.08" font-weight="700" transform="translate(1073 488.23)"><tspan letter-spacing="0em" x="0" y="0">P</tspan><tspan letter-spacing=".02em" x="167.8" y="0">U</tspan><tspan letter-spacing=".01em" x="364.19" y="0">R</tspan><tspan letter-spacing="0em" x="543.41" y="0">P</tspan><tspan letter-spacing="0em" x="712.45" y="0">L</tspan><tspan letter-spacing=".03em" x="841.3" y="0">E</tspan><tspan letter-spacing="0em" x="1058.17" y="0">T</tspan><tspan letter-spacing=".02em" x="1217.65" y="0">U</tspan><tspan letter-spacing="0em" x="1414.04" y="0">R</tspan><tspan letter-spacing="0em" x="1590.45" y="0">T</tspan><tspan letter-spacing="0em" x="1749.5" y="0">L</tspan><tspan letter-spacing=".03em" x="1878.35" y="0">E</tspan></text><text font-family="Poppins-SemiBold, Poppins" font-size="218.88" font-weight="600" opacity=".29" transform="translate(1537 704.2)"><tspan letter-spacing=".07em" x="0" y="0">C</tspan><tspan letter-spacing=".08em" x="184.47" y="0">R</tspan><tspan letter-spacing=".08em" x="341.81" y="0">E</tspan><tspan letter-spacing="-.01em" x="474.8" y="0">A</tspan><tspan letter-spacing=".07em" x="628.92" y="0">T</tspan><tspan letter-spacing=".07em" x="769.46" y="0">I</tspan><tspan letter-spacing=".07em" x="846.62" y="0">V</tspan><tspan letter-spacing=".1em" x="1018.44" y="0">E</tspan></text></g></svg>