<svg clip-rule="evenodd" fill-rule="evenodd" stroke-linejoin="round" stroke-miterlimit="2" viewBox="0 0 2929 681" xmlns="http://www.w3.org/2000/svg"><g fill="#f6f7fd" fill-rule="nonzero"><path d="m630.547 87.44c-38.12-11.05-74.67-15.84-109.54-15.84-40.48 0-78.71 6.47-114.49 17.15-170.02 50.77-281.89 196.69-281.89 196.69l-83.07 114.78s13.21 5.42 36.86 11.99c4.7 1.32 9.83 2.64 15.36 4.01-3.18 3-70.1 65.42-90.87 162.67-3.78 17.71-3.82 25.05-.43 25.05 15.22 0 99.49-147.95 223.65-169.61 1.95.05 3.9.08 5.89.13 4.01.1 8.08.13 12.2.13s8.49-.04 12.8-.07c40.01-.52 83.94-4.9 130.32-15.12 4.45-.97 8.94-1.65 13.45-3.44l.36-.16c-.08.28-.17.57-.28.85-56.11 164.75-246.63 264.27-207.71 264.27 2.33 0 5.49-.36 9.55-1.08 71.74-12.78 281.16-89.34 380.45-335.82.04-.09 95.37-48.44 149.87-128.68 49.85-73.39 113.54-107.49 148.78-123.51 4.23-1.92 6.96-47.04-38.26-73.29-22.62-13.14-44.01-18.53-64.1-18.53-63.26 0-113.63 53.52-148.9 87.44v-.01z"/><path d="m843.547 18.53c-22.62-13.14-44.01-18.53-64.1-18.53-63.26 0-113.63 53.52-148.9 87.44-38.12-11.05-74.67-15.84-109.54-15.84-40.48 0-78.71 6.47-114.49 17.15-170.02 50.77-281.89 196.69-281.89 196.69l-83.07 114.78s13.21 5.42 36.86 11.99c4.7 1.32 9.83 2.64 15.36 4.01-3.18 3-70.1 65.42-90.87 162.67-3.78 17.71-3.82 25.05-.43 25.05 15.22 0 99.49-147.95 223.65-169.61 1.95.05 3.9.08 5.89.13 4.01.1 8.08.13 12.2.13s8.49-.04 12.8-.07c40.01-.52 83.94-4.9 130.32-15.12 4.45-.97 8.94-1.65 13.45-3.44l.36-.16c-.08.28-.17.57-.28.85-56.11 164.75-246.63 264.27-207.71 264.27 2.33 0 5.49-.36 9.55-1.08 71.74-12.78 281.16-89.34 380.45-335.82.04-.09 95.37-48.44 149.87-128.68 49.85-73.39 113.54-107.49 148.78-123.51 4.23-1.92 6.96-47.04-38.26-73.29v-.01z"/><g opacity=".29"><path d="m606.207 367.46c2.3 16.73 3.7 33.89 2.31 46.09-11.73 103.05-107.18 201.49-66.23 184.8 40.87-16.65 152.9-86.29 161.99-245.25.78-13.62-.79-33.91-3.38-55.73-37.15 34-74.91 57.33-93.81 68.05-.29.68-.59 1.35-.88 2.03z"/><path d="m257.417 464.8h-.13c-4.02.04-8.58.07-13.06.07-4.84 0-9.07-.05-12.94-.14-.84-.02-1.68-.04-2.51-.05-52.28 49.68-116.07 73.34-65.08 67.92 76.14-8.12 135.77-47.19 167.68-72.91-24.63 3.06-49.35 4.79-73.96 5.11z"/></g><path d="m1078.234 204.372c0 10.983-2.521 21.021-7.562 30.114s-12.784 16.43-23.227 22.012-23.407 8.372-38.892 8.372h-28.628v68.06h-46.184v-189.596h74.812c15.124 0 27.908 2.611 38.351 7.832 10.443 5.222 18.275 12.424 23.497 21.606 5.222 9.183 7.832 19.716 7.832 31.599zm-73.192 23.767c8.823 0 15.395-2.071 19.716-6.212s6.482-9.993 6.482-17.555-2.161-13.414-6.482-17.555-10.893-6.212-19.716-6.212h-25.117v47.534z"/><path d="m1146.915 143.334v113.434c0 11.343 2.791 20.076 8.372 26.198 5.582 6.122 13.774 9.183 24.577 9.183s19.086-3.061 24.847-9.183c5.762-6.122 8.643-14.854 8.643-26.198v-113.434h46.184v113.164c0 16.925-3.601 31.239-10.803 42.943-7.202 11.703-16.88 20.526-29.034 26.468s-25.703 8.913-40.647 8.913-28.313-2.926-40.107-8.778c-11.793-5.852-21.111-14.674-27.953-26.468-6.842-11.793-10.263-26.153-10.263-43.078v-113.164z"/><path d="m1394.62 332.93-39.432-71.571h-11.073v71.571h-46.184v-189.596h77.513c14.944 0 27.683 2.611 38.216 7.832 10.533 5.222 18.41 12.379 23.632 21.471 5.222 9.093 7.832 19.221 7.832 30.384 0 12.604-3.556 23.857-10.668 33.76s-17.6 16.925-31.464 21.066l43.753 75.082h-52.125zm-50.505-104.251h28.628c8.463 0 14.809-2.071 19.041-6.212 4.231-4.141 6.347-9.993 6.347-17.555 0-7.202-2.116-12.874-6.347-17.015s-10.578-6.212-19.041-6.212h-28.628z"/><path d="m1621.644 204.372c0 10.983-2.521 21.021-7.562 30.114s-12.784 16.43-23.227 22.012-23.407 8.372-38.892 8.372h-28.628v68.06h-46.184v-189.596h74.812c15.124 0 27.908 2.611 38.351 7.832 10.443 5.222 18.275 12.424 23.497 21.606 5.222 9.183 7.832 19.716 7.832 31.599zm-73.192 23.767c8.823 0 15.395-2.071 19.716-6.212s6.482-9.993 6.482-17.555-2.161-13.414-6.482-17.555-10.893-6.212-19.716-6.212h-25.117v47.534z"/><path d="m1692.375 297.279h60.498v35.651h-106.682v-189.596h46.184v153.946z"/><path d="m1821.225 180.335v38.351h61.848v35.651h-61.848v41.592h69.951v37.001h-116.134v-189.596h116.134v37.001z"/><path d="m2128.302 143.334v37.001h-50.235v152.595h-46.184v-152.595h-50.235v-37.001h146.653z"/><path d="m2196.765 143.334v113.434c0 11.343 2.791 20.076 8.372 26.198 5.582 6.122 13.774 9.183 24.577 9.183s19.086-3.061 24.847-9.183c5.762-6.122 8.643-14.854 8.643-26.198v-113.434h46.184v113.164c0 16.925-3.601 31.239-10.803 42.943-7.202 11.703-16.88 20.526-29.034 26.468s-25.703 8.913-40.647 8.913-28.313-2.926-40.107-8.778c-11.793-5.852-21.111-14.674-27.953-26.468-6.842-11.793-10.263-26.153-10.263-43.078v-113.164z"/><path d="m2444.47 332.93-39.432-71.571h-11.073v71.571h-46.184v-189.596h77.513c14.944 0 27.683 2.611 38.216 7.832 10.533 5.222 18.41 12.379 23.632 21.471 5.222 9.093 7.832 19.221 7.832 30.384 0 12.604-3.556 23.857-10.668 33.76s-17.6 16.925-31.464 21.066l43.753 75.082h-52.125zm-50.505-104.251h28.628c8.463 0 14.809-2.071 19.041-6.212 4.231-4.141 6.347-9.993 6.347-17.555 0-7.202-2.116-12.874-6.347-17.015s-10.578-6.212-19.041-6.212h-28.628z"/><path d="m2660.582 143.334v37.001h-50.235v152.595h-46.184v-152.595h-50.235v-37.001h146.653z"/><path d="m2729.425 297.279h60.498v35.651h-106.682v-189.596h46.184v153.946z"/><path d="m2858.275 180.335v38.351h61.848v35.651h-61.848v41.592h69.951v37.001h-116.134v-189.596h116.134v37.001z"/><g opacity=".29"><path d="m1388.657 472.292c0-15.03 3.393-28.491 10.178-40.383s16.051-21.158 27.798-27.798c11.747-6.639 24.916-9.959 39.508-9.959 17.073 0 32.029 4.378 44.87 13.133s21.815 20.867 26.922 36.334h-35.24c-3.502-7.296-8.427-12.768-14.774-16.416-6.348-3.648-13.68-5.472-21.997-5.472-8.901 0-16.817 2.079-23.748 6.238s-12.33 10.032-16.197 17.62-5.8 16.489-5.8 26.703c0 10.068 1.933 18.933 5.8 26.594s9.266 13.571 16.197 17.729c6.931 4.159 14.847 6.238 23.748 6.238 8.317 0 15.65-1.86 21.997-5.581 6.348-3.721 11.272-9.229 14.774-16.525h35.24c-5.107 15.613-14.045 27.761-26.813 36.444-12.768 8.682-27.761 13.023-44.98 13.023-14.592 0-27.761-3.32-39.508-9.959s-21.012-15.869-27.798-27.688c-6.785-11.82-10.178-25.244-10.178-40.274z"/><path d="m1659.366 548.9-33.708-59.535h-14.446v59.535h-30.643v-152.778h57.347c11.82 0 21.888 2.079 30.205 6.238s14.556 9.777 18.714 16.854c4.159 7.077 6.238 14.993 6.238 23.748 0 10.068-2.918 19.152-8.755 27.251s-14.519 13.68-26.047 16.744l36.553 61.943h-35.459zm-48.154-82.518h25.609c8.317 0 14.519-2.006 18.605-6.019s6.129-9.594 6.129-16.744c0-7.004-2.043-12.44-6.129-16.307s-10.287-5.8-18.605-5.8h-25.609z"/><path d="m1768.553 420.855v38.304h51.437v24.296h-51.437v40.493h58.003v24.952h-88.646v-152.997h88.646v24.952z"/><path d="m1964.58 519.789h-60.849l-10.068 29.111h-32.175l54.939-152.997h35.677l54.939 152.997h-32.394l-10.068-29.111zm-8.317-24.515-22.107-63.913-22.107 63.913z"/><path d="m2128.987 396.122v24.733h-40.712v128.045h-30.643v-128.045h-40.712v-24.733z"/><path d="m2165.559 396.122h30.643v152.778h-30.643z"/><path d="m2379.957 396.122-56.033 152.778h-37.21l-56.033-152.778h32.832l42.025 121.478 41.806-121.478z"/><path d="m2445.183 420.855v38.304h51.437v24.296h-51.437v40.493h58.003v24.952h-88.646v-152.997h88.646v24.952z"/></g></g></svg>