<?xml version="1.0" encoding="UTF-8" standalone="no"?><!DOCTYPE svg PUBLIC "-//W3C//DTD SVG 1.1//EN" "http://www.w3.org/Graphics/SVG/1.1/DTD/svg11.dtd"><svg width="100%" height="100%" viewBox="0 0 1995 407" version="1.1" xmlns="http://www.w3.org/2000/svg" xmlns:xlink="http://www.w3.org/1999/xlink" xml:space="preserve" xmlns:serif="http://www.serif.com/" style="fill-rule:evenodd;clip-rule:evenodd;stroke-linejoin:round;stroke-miterlimit:2;"><path d="M144.493,61.038c0,10.983 -2.521,21.021 -7.562,30.114c-5.041,9.093 -12.784,16.43 -23.227,22.012c-10.443,5.582 -23.407,8.372 -38.892,8.372l-28.628,0l0,68.06l-46.184,0l0,-189.596l74.812,0c15.124,0 27.908,2.611 38.351,7.832c10.443,5.222 18.275,12.424 23.497,21.606c5.222,9.183 7.832,19.716 7.832,31.599l0.001,0.001Zm-73.192,23.767c8.823,0 15.395,-2.071 19.716,-6.212c4.321,-4.141 6.482,-9.993 6.482,-17.555c0,-7.562 -2.161,-13.414 -6.482,-17.555c-4.321,-4.141 -10.893,-6.212 -19.716,-6.212l-25.117,0l0,47.534l25.117,0Z" style="fill:#f6f7fd;fill-rule:nonzero;"/><path d="M213.174,0l0,113.434c0,11.343 2.791,20.076 8.372,26.198c5.582,6.122 13.774,9.183 24.577,9.183c10.803,0 19.086,-3.061 24.847,-9.183c5.762,-6.122 8.643,-14.854 8.643,-26.198l0,-113.434l46.184,0l0,113.164c0,16.925 -3.601,31.239 -10.803,42.943c-7.202,11.703 -16.88,20.526 -29.034,26.468c-12.154,5.942 -25.703,8.913 -40.647,8.913c-14.944,0 -28.313,-2.926 -40.107,-8.778c-11.793,-5.852 -21.111,-14.674 -27.953,-26.468c-6.842,-11.793 -10.263,-26.153 -10.263,-43.078l0,-113.164l46.184,-0Z" style="fill:#f6f7fd;fill-rule:nonzero;"/><path d="M460.879,189.596l-39.432,-71.571l-11.073,0l0,71.571l-46.184,0l0,-189.596l77.513,0c14.944,0 27.683,2.611 38.216,7.832c10.533,5.222 18.41,12.379 23.632,21.471c5.222,9.093 7.832,19.221 7.832,30.384c0,12.604 -3.556,23.857 -10.668,33.76c-7.112,9.903 -17.6,16.925 -31.464,21.066l43.753,75.082l-52.125,0l0,0.001Zm-50.505,-104.251l28.628,0c8.463,0 14.809,-2.071 19.041,-6.212c4.231,-4.141 6.347,-9.993 6.347,-17.555c0,-7.202 -2.116,-12.874 -6.347,-17.015c-4.231,-4.141 -10.578,-6.212 -19.041,-6.212l-28.628,0l0,46.994Z" style="fill:#f6f7fd;fill-rule:nonzero;"/><path d="M687.903,61.038c0,10.983 -2.521,21.021 -7.562,30.114c-5.041,9.093 -12.784,16.43 -23.227,22.012c-10.443,5.582 -23.407,8.372 -38.892,8.372l-28.628,0l0,68.06l-46.184,0l0,-189.596l74.812,0c15.124,0 27.908,2.611 38.351,7.832c10.443,5.222 18.275,12.424 23.497,21.606c5.222,9.183 7.832,19.716 7.832,31.599l0.001,0.001Zm-73.192,23.767c8.823,0 15.395,-2.071 19.716,-6.212c4.321,-4.141 6.482,-9.993 6.482,-17.555c0,-7.562 -2.161,-13.414 -6.482,-17.555c-4.321,-4.141 -10.893,-6.212 -19.716,-6.212l-25.117,0l0,47.534l25.117,0Z" style="fill:#f6f7fd;fill-rule:nonzero;"/><path d="M758.634,153.945l60.498,0l0,35.651l-106.682,0l0,-189.596l46.184,0l0,153.946l0,-0.001Z" style="fill:#f6f7fd;fill-rule:nonzero;"/><path d="M887.484,37.001l0,38.351l61.848,0l0,35.651l-61.848,0l0,41.592l69.951,0l0,37.001l-116.134,0l0,-189.596l116.134,0l0,37.001l-69.951,0Z" style="fill:#f6f7fd;fill-rule:nonzero;"/><path d="M1194.561,0l0,37.001l-50.235,0l0,152.595l-46.184,0l0,-152.595l-50.235,0l0,-37.001l146.654,0Z" style="fill:#f6f7fd;fill-rule:nonzero;"/><path d="M1263.024,0l0,113.434c0,11.343 2.791,20.076 8.372,26.198c5.582,6.122 13.774,9.183 24.577,9.183c10.803,0 19.086,-3.061 24.847,-9.183c5.762,-6.122 8.643,-14.854 8.643,-26.198l0,-113.434l46.184,0l0,113.164c0,16.925 -3.601,31.239 -10.803,42.943c-7.202,11.703 -16.88,20.526 -29.034,26.468c-12.154,5.942 -25.703,8.913 -40.647,8.913c-14.944,0 -28.313,-2.926 -40.107,-8.778c-11.793,-5.852 -21.111,-14.674 -27.953,-26.468c-6.842,-11.793 -10.263,-26.153 -10.263,-43.078l0,-113.164l46.184,-0Z" style="fill:#f6f7fd;fill-rule:nonzero;"/><path d="M1510.729,189.596l-39.432,-71.571l-11.073,0l0,71.571l-46.184,0l0,-189.596l77.513,0c14.944,0 27.683,2.611 38.216,7.832c10.533,5.222 18.41,12.379 23.632,21.471c5.222,9.093 7.832,19.221 7.832,30.384c0,12.604 -3.556,23.857 -10.668,33.76c-7.112,9.903 -17.6,16.925 -31.464,21.066l43.753,75.082l-52.125,0l0,0.001Zm-50.505,-104.251l28.628,0c8.463,0 14.809,-2.071 19.041,-6.212c4.231,-4.141 6.347,-9.993 6.347,-17.555c0,-7.202 -2.116,-12.874 -6.347,-17.015c-4.231,-4.141 -10.578,-6.212 -19.041,-6.212l-28.628,0l0,46.994Z" style="fill:#f6f7fd;fill-rule:nonzero;"/><path d="M1726.841,0l0,37.001l-50.235,0l0,152.595l-46.184,0l0,-152.595l-50.235,0l0,-37.001l146.654,0Z" style="fill:#f6f7fd;fill-rule:nonzero;"/><path d="M1795.684,153.945l60.498,0l0,35.651l-106.682,0l0,-189.596l46.184,0l0,153.946l-0,-0.001Z" style="fill:#f6f7fd;fill-rule:nonzero;"/><path d="M1924.534,37.001l0,38.351l61.848,0l0,35.651l-61.848,0l0,41.592l69.951,0l0,37.001l-116.134,0l0,-189.596l116.134,0l0,37.001l-69.951,0Z" style="fill:#f6f7fd;fill-rule:nonzero;"/><path d="M454.916,328.958c0,-15.03 3.393,-28.491 10.178,-40.383c6.785,-11.892 16.051,-21.158 27.798,-27.798c11.747,-6.639 24.916,-9.959 39.508,-9.959c17.073,0 32.029,4.378 44.87,13.133c12.841,8.755 21.815,20.867 26.922,36.334l-35.24,0c-3.502,-7.296 -8.427,-12.768 -14.774,-16.416c-6.348,-3.648 -13.68,-5.472 -21.997,-5.472c-8.901,0 -16.817,2.079 -23.748,6.238c-6.931,4.159 -12.33,10.032 -16.197,17.62c-3.867,7.588 -5.8,16.489 -5.8,26.703c0,10.068 1.933,18.933 5.8,26.594c3.867,7.661 9.266,13.571 16.197,17.729c6.931,4.159 14.847,6.238 23.748,6.238c8.317,0 15.65,-1.86 21.997,-5.581c6.348,-3.721 11.272,-9.229 14.774,-16.525l35.24,0c-5.107,15.613 -14.045,27.761 -26.813,36.444c-12.768,8.682 -27.761,13.023 -44.98,13.023c-14.592,0 -27.761,-3.32 -39.508,-9.959c-11.747,-6.639 -21.012,-15.869 -27.798,-27.688c-6.785,-11.82 -10.178,-25.244 -10.178,-40.274l0.001,-0.001Z" style="fill:#f6f7fd;fill-opacity:0.29;fill-rule:nonzero;"/><path d="M725.625,405.566l-33.708,-59.535l-14.446,0l0,59.535l-30.643,0l0,-152.778l57.347,0c11.82,0 21.888,2.079 30.205,6.238c8.317,4.159 14.556,9.777 18.714,16.854c4.159,7.077 6.238,14.993 6.238,23.748c0,10.068 -2.918,19.152 -8.755,27.251c-5.837,8.099 -14.519,13.68 -26.047,16.744l36.553,61.943l-35.459,0l0.001,0Zm-48.154,-82.518l25.609,0c8.317,0 14.519,-2.006 18.605,-6.019c4.086,-4.013 6.129,-9.594 6.129,-16.744c0,-7.004 -2.043,-12.44 -6.129,-16.307c-4.086,-3.867 -10.287,-5.8 -18.605,-5.8l-25.609,0l0,44.87Z" style="fill:#f6f7fd;fill-opacity:0.29;fill-rule:nonzero;"/><path d="M834.812,277.521l0,38.304l51.437,0l0,24.296l-51.437,0l0,40.493l58.003,0l0,24.952l-88.646,0l0,-152.997l88.646,0l0,24.952l-58.003,0Z" style="fill:#f6f7fd;fill-opacity:0.29;fill-rule:nonzero;"/><path d="M1030.84,376.455l-60.85,0l-10.068,29.111l-32.175,0l54.939,-152.997l35.677,0l54.939,152.997l-32.394,0l-10.068,-29.111Zm-8.318,-24.515l-22.107,-63.913l-22.107,63.913l44.214,0Z" style="fill:#f6f7fd;fill-opacity:0.29;fill-rule:nonzero;"/><path d="M1195.246,252.788l0,24.733l-40.712,0l0,128.045l-30.643,0l0,-128.045l-40.712,0l0,-24.733l112.067,0Z" style="fill:#f6f7fd;fill-opacity:0.29;fill-rule:nonzero;"/><rect x="1231.818" y="252.788" width="30.643" height="152.778" style="fill:#f6f7fd;fill-opacity:0.29;fill-rule:nonzero;"/><path d="M1446.216,252.788l-56.033,152.778l-37.21,0l-56.033,-152.778l32.832,0l42.025,121.478l41.806,-121.478l32.613,0Z" style="fill:#f6f7fd;fill-opacity:0.29;fill-rule:nonzero;"/><path d="M1511.442,277.521l0,38.304l51.437,0l0,24.296l-51.437,0l0,40.493l58.003,0l0,24.952l-88.646,0l0,-152.997l88.646,0l0,24.952l-58.003,0Z" style="fill:#f6f7fd;fill-opacity:0.29;fill-rule:nonzero;"/></svg>