<?xml version="1.0" ?><svg style="enable-background:new 0 0 99 77.258; fill:#ffffff;" version="1.1" viewBox="0 0 99 77.258" xml:space="preserve" xmlns="http://www.w3.org/2000/svg" xmlns:xlink="http://www.w3.org/1999/xlink"><g id="book"><path d="M90.181,9.248l-3.019-6.262c-3.679-0.995-7.021-1.741-10.158-2.24C73.866,0.249,71.016,0,68.389,0   c-5.132,0-9.149,0.683-12.086,2.047c-2.937,1.365-5.123,3.588-6.576,6.671c-1.606-3.147-3.801-5.386-6.596-6.719   C40.337,0.667,36.472,0,31.532,0c-2.841,0-5.89,0.249-9.147,0.746c-3.257,0.498-6.708,1.245-10.351,2.24l-3.39,6.791L0,10.307   v66.95l40.953-3.179c1.762,0.835,3.433,1.469,4.994,1.903c1.561,0.433,3.027,0.65,4.387,0.65c1.329,0,2.707-0.217,4.129-0.65   c1.422-0.433,2.612-1.067,4.096-1.903L99,77.258V9.778L90.181,9.248z M87,7.466l4,9.007v49.466l-4-8.959V7.466z M90.12,68.347   l-33.985-2.842c-1.201,1.51-2.94,2.456-5.218,2.842c0-7.545,5.452-11.319,16.357-11.319c2.533,0,5.336,0.192,8.41,0.578   c3.074,0.385,6.402,0.98,9.986,1.782L90.12,68.347z M50,15.895c0-4.656,1.633-7.947,3.981-9.874   c2.935-2.44,7.489-3.661,13.204-3.661c2.347,0,4.247,0.193,7.12,0.578C77.178,3.323,81,3.901,83,4.672v52.067   c-2-0.706-4.85-1.228-7.677-1.565c-2.827-0.337-5.233-0.506-8.043-0.506c-4.233,0-7.806,0.442-10.215,1.324   C54.655,56.876,53,58.489,50,60.833V15.895z M15,4.768c2-0.802,6.035-1.404,8.959-1.806c2.923-0.401,5.743-0.602,8.528-0.602   c5.414,0,9.125,1.116,11.817,3.347C46.994,7.94,48,11.303,48,15.798v44.842c-3-3.981-8.895-5.973-16.845-5.973   c-1.949,0-4.079,0.161-6.847,0.482C21.539,55.471,17,55.969,15,56.643V4.768z M23.663,57.582c2.951-0.369,5.709-0.554,8.274-0.554   c5.531,0,9.586,0.875,12.167,2.625c2.58,1.751,4.087,4.648,4.519,8.694c-2.319-0.545-3.973-1.476-4.962-2.794L9.788,68.347   l4.443-9.103C17.568,58.505,20.712,57.951,23.663,57.582z M8,15.943l4-8.67V56.98l-4,9.2V15.943z M97,74.705L58.001,71.67   c-1.392,0.867-2.672,1.517-3.97,1.951c-1.298,0.434-2.533,0.651-3.77,0.651c-1.329,0-2.689-0.217-4.111-0.651   c-1.422-0.433-3.053-1.083-4.598-1.951L2,74.705V12.33l4.395-0.289L4,15.461v55.294l38.144-2.408   c1.761,1.574,4.453,2.36,7.204,2.36c2.782,0,4.896-0.786,6.689-2.36L93,70.755V15.461l-2.008-3.901L97,11.897V74.705z"/></g><g/></svg>