<svg width="24" height="24" viewBox="0 0 24 24" fill="none" xmlns="http://www.w3.org/2000/svg">
<g clip-path="url(#clip0_7530_6489)">
<path d="M5 8L9 12H6C6 15.31 8.69 18 12 18C13.01 18 13.97 17.75 14.8 17.3L16.26 18.76C15.03 19.54 13.57 20 12 20C7.58 20 4 16.42 4 12H1L5 8ZM18 12C18 8.69 15.31 6 12 6C10.99 6 10.03 6.25 9.2 6.7L7.74 5.24C8.97 4.46 10.43 4 12 4C16.42 4 20 7.58 20 12H23L19 16L15 12H18Z" fill="#AFE614"/>
</g>
<defs>
<clipPath id="clip0_7530_6489">
<rect width="24" height="24" fill="white" transform="matrix(-1 0 0 1 24 0)"/>
</clipPath>
</defs>
</svg>
