<svg xmlns="http://www.w3.org/2000/svg" width="640" height="512" viewBox="0 0 640 512">
  <path fill="#FFF" d="M592,288 L576,288 L576,240 C576,195.9 540.1,160 496,160 C451.9,160 416,195.9 416,240 L416,288 L400,288 C373.5,288 352,309.5 352,336 L352,464 C352,490.5 373.5,512 400,512 L592,512 C618.5,512 640,490.5 640,464 L640,336 C640,309.5 618.5,288 592,288 Z M448,240 C448,213.5 469.5,192 496,192 C522.5,192 544,213.5 544,240 L544,288 L448,288 L448,240 Z M608,464 C608,472.8 600.8,480 592,480 L400,480 C391.2,480 384,472.8 384,464 L384,336 C384,327.2 391.2,320 400,320 L592,320 C600.8,320 608,327.2 608,336 L608,464 Z M224,256 C294.7,256 352,198.7 352,128 C352,57.3 294.7,0 224,0 C153.3,0 96,57.3 96,128 C96,198.7 153.3,256 224,256 Z M224,32 C276.9,32 320,75.1 320,128 C320,180.9 276.9,224 224,224 C171.1,224 128,180.9 128,128 C128,75.1 171.1,32 224,32 Z M48,480 C39.2,480 32,472.8 32,464 L32,422.4 C32,365.9 77.9,320 134.4,320 C154,320 173.5,336 224,336 C274.4,336 294,320 313.6,320 C316.3,320 318.9,320.6 321.5,320.8 C323.7,309.5 328.2,299.2 334.6,290.1 C327.7,289 320.8,288 313.5,288 C284.8,288 271,304 223.9,304 C176.8,304 163.1,288 134.3,288 C60.2,288 0,348.2 0,422.4 L0,464 C0,490.5 21.5,512 48,512 L336.4,512 C329.3,502.7 324,491.9 321.6,480 L48,480 Z"/>
</svg>
