<svg xmlns="http://www.w3.org/2000/svg" width="25" height="25" viewBox="0 0 25 25">
    <g fill="#BBA808" fill-rule="evenodd">
        <path fill-rule="nonzero" d="M12.5 25c3.339 0 6.478-1.3 8.838-3.661A12.417 12.417 0 0 0 25 12.5c0-3.339-1.3-6.478-3.661-8.838A12.417 12.417 0 0 0 12.5 0C9.161 0 6.022 1.3 3.662 3.661A12.417 12.417 0 0 0 0 12.5c0 3.339 1.3 6.478 3.661 8.838A12.417 12.417 0 0 0 12.5 25zM4.766 4.766A10.864 10.864 0 0 1 12.5 1.562c2.921 0 5.668 1.138 7.734 3.204a10.864 10.864 0 0 1 3.203 7.734c0 2.921-1.137 5.668-3.203 7.734a10.864 10.864 0 0 1-7.734 3.203 10.864 10.864 0 0 1-7.734-3.203A10.864 10.864 0 0 1 1.562 12.5c0-2.921 1.138-5.668 3.204-7.734z"/>
        <rect width="1.563" height="11.458" x="11.719" y="4.688" rx=".781"/>
        <rect width="1.563" height="1.563" x="11.719" y="18.75" rx=".781"/>
    </g>
</svg>
